<?xml version="1.0" standalone="no"?>
<!DOCTYPE svg PUBLIC "-//W3C//DTD SVG 20010904//EN"
 "http://www.w3.org/TR/2001/REC-SVG-20010904/DTD/svg10.dtd">
<svg version="1.0" xmlns="http://www.w3.org/2000/svg"
 width="128.000000pt" height="128.000000pt" viewBox="0 0 128.000000 128.000000"
 preserveAspectRatio="xMidYMid meet">

<g transform="translate(0.000000,128.000000) scale(0.100000,-0.100000)"
fill="#000000" stroke="none">
<path d="M0 640 l0 -640 640 0 640 0 0 640 0 640 -640 0 -640 0 0 -640z m400
-15 l0 -155 -67 0 c-65 0 -66 0 -48 20 10 11 29 20 42 20 18 0 23 5 23 25 0
23 -4 25 -42 25 -40 0 -41 0 -23 20 10 11 29 20 42 20 18 0 23 5 23 25 0 23
-4 25 -45 25 l-45 0 0 42 c0 60 29 88 92 88 l48 0 0 -155z m86 140 c7 -17 -21
-65 -36 -65 -6 0 -10 18 -10 40 0 34 3 40 20 40 11 0 23 -7 26 -15z m92 -32
l3 -43 65 0 64 0 0 45 c0 38 3 45 20 45 17 0 20 -7 20 -45 l0 -45 115 0 115 0
0 42 c0 40 0 41 20 23 14 -13 20 -31 20 -61 l0 -43 -132 -3 c-129 -3 -133 -4
-136 -25 -3 -23 -3 -23 132 -23 129 0 136 -1 136 -20 0 -18 -8 -20 -132 -22
-129 -3 -133 -4 -136 -25 -3 -23 -3 -23 132 -23 129 0 136 -1 136 -20 0 -20
-7 -20 -287 -20 -285 0 -286 0 -268 20 10 11 29 20 42 20 18 0 23 5 23 25 0
23 -4 25 -42 25 -40 0 -41 0 -23 20 10 11 29 20 42 20 22 0 23 2 23 91 0 88 1
90 23 87 18 -2 23 -10 25 -45z m82 23 c0 -31 -34 -29 -38 2 -3 17 2 22 17 22
16 0 21 -6 21 -24z m242 7 c29 -26 21 -33 -42 -33 -57 0 -60 1 -60 25 0 23 4
25 42 25 24 0 49 -7 60 -17z"/>
<path d="M328 733 c-25 -6 -23 -43 2 -43 15 0 20 7 20 25 0 14 -1 24 -2 24 -2
-1 -11 -3 -20 -6z"/>
<path d="M580 625 c0 -24 2 -25 66 -25 62 0 65 1 62 23 -3 20 -9 22 -65 25
-62 3 -63 2 -63 -23z"/>
<path d="M580 535 c0 -24 2 -25 66 -25 62 0 65 1 62 23 -3 20 -9 22 -65 25
-62 3 -63 2 -63 -23z"/>
</g>
</svg>
